<svg xmlns="http://www.w3.org/2000/svg" viewBox="0 0 32 32">
  <g transform="translate(16,16) scale(0.85)">
    <!-- Lobster claw -->
    <path d="M-4 8 C-8 4, -10 -2, -7 -7 C-5 -10, -1 -11, 2 -9 C4 -8, 5 -5, 4 -2 L2 2 Z" fill="#e74c8a" stroke="#c23672" stroke-width="0.8"/>
    <path d="M4 8 C8 4, 10 -2, 7 -7 C5 -10, 1 -11, -2 -9 C-4 -8, -5 -5, -4 -2 L-2 2 Z" fill="#e74c8a" stroke="#c23672" stroke-width="0.8"/>
    <!-- Center body -->
    <ellipse cx="0" cy="6" rx="3" ry="5" fill="#d63d7a" stroke="#c23672" stroke-width="0.5"/>
    <!-- Eyes -->
    <circle cx="-2" cy="-1" r="1.2" fill="#1a1a2e"/>
    <circle cx="2" cy="-1" r="1.2" fill="#1a1a2e"/>
    <circle cx="-1.7" cy="-1.3" r="0.4" fill="#fff"/>
    <circle cx="2.3" cy="-1.3" r="0.4" fill="#fff"/>
  </g>
</svg>
